<svg xmlns:dc="http://purl.org/dc/elements/1.1/" xmlns:cc="http://creativecommons.org/ns#" xmlns:rdf="http://www.w3.org/1999/02/22-rdf-syntax-ns#" xmlns:svg="http://www.w3.org/2000/svg" xmlns="http://www.w3.org/2000/svg" xmlns:sodipodi="http://sodipodi.sourceforge.net/DTD/sodipodi-0.dtd" xmlns:inkscape="http://www.inkscape.org/namespaces/inkscape" version="1.1" x="0px" y="0px" viewBox="0 0 100 100"><g transform="translate(0,-952.36218)"><path style="text-indent:0;text-transform:none;direction:ltr;block-progression:tb;baseline-shift:baseline;color:#000000;enable-background:accumulate;" d="m 50.045254,961.36202 -8.509,0 0,5.5365 0,19.6716 8.509,0 0,-19.6535 0,-5.5546 z" fill="#000000" fill-opacity="1" fill-rule="evenodd" stroke="none" marker="none" visibility="visible" display="inline" overflow="visible"></path><path style="text-indent:0;text-transform:none;direction:ltr;block-progression:tb;baseline-shift:baseline;color:#000000;enable-background:accumulate;" d="m 39.536254,968.68572 c -12.227303,2.4933 -20.102103,12.2167 -22.164403,23.1078 -2.1151,11.16998 1.8785,23.44768 13.770303,30.37628 a 1.0001,1.0001 0 0 1 0.4966,0.864 l 0,20.3285 28.294,0 0,-7.8744 a 1.0001,1.0001 0 0 1 1,-1 l 14.1507,0 -0.0188,-15.9853 a 1.0001,1.0001 0 0 1 0.5662,-0.9022 l 7.5376,-3.6303 -8.2382,-16.41908 a 1.0001,1.0001 0 0 1 -0.1062,-0.4484 c 0,-13.8988 -9.7548,-25.4993 -22.7788,-28.3603 l 0,18.4543 c 3.5737,2.1384 5.9766,6.0499 5.9766,10.5075 0,6.74768 -5.4934,12.23098 -12.231,12.23098 -6.7467,0 -12.2312,-5.4843 -12.2312,-12.23098 0,-4.4627 2.3984,-8.3764 5.9766,-10.5025 l 0,-18.5159 z" fill="#000000" fill-opacity="1" fill-rule="evenodd" stroke="none" marker="none" visibility="visible" display="inline" overflow="visible"></path><path style="text-indent:0;text-transform:none;direction:ltr;block-progression:tb;baseline-shift:baseline;color:#000000;enable-background:accumulate;" d="m 50.477154,988.56812 a 1.0001,1.0001 0 0 0 0.1875,0.125 c 3.1886,1.7358 5.3438,5.1117 5.3438,9 0,5.66638 -4.5621,10.24998 -10.2188,10.24998 -5.6676,0 -10.2188,-4.5825 -10.2188,-10.24998 0,-3.9086 2.1715,-7.2841 5.375,-9 a 1.0001,1.0001 0 0 0 0.1876,-0.125 l 9.3437,0 z m -4.6875,4.9375 c -2.3065,0 -4.1875,1.881 -4.1875,4.1875 0,2.3066 1.881,4.21868 4.1875,4.21868 2.3066,0 4.1875,-1.91218 4.1875,-4.21868 0,-2.3065 -1.8809,-4.1875 -4.1875,-4.1875 z" fill="#000000" fill-opacity="1" fill-rule="evenodd" stroke="none" marker="none" visibility="visible" display="inline" overflow="visible"></path><path style="text-indent:0;text-transform:none;direction:ltr;block-progression:tb;baseline-shift:baseline;color:#000000;enable-background:accumulate;" d="m 45.790854,995.50542 c -1.2232,0 -2.199,0.9756 -2.199,2.1987 0,1.2232 0.9758,2.1988 2.199,2.1988 1.2233,0 2.1988,-0.9756 2.1988,-2.1988 0,-1.2231 -0.9755,-2.1987 -2.1988,-2.1987 z" fill="#000000" fill-opacity="1" fill-rule="evenodd" stroke="none" marker="none" visibility="visible" display="inline" overflow="visible"></path></g></svg>